<svg width="422" height="417" viewBox="0 0 422 417" fill="none" xmlns="http://www.w3.org/2000/svg">
<path fill-rule="evenodd" clip-rule="evenodd" d="M188.604 139.434C188.274 137.122 190.805 134.7 193.007 134.59C194.989 134.48 196.86 136.021 197.631 138.223C200.713 147.139 205.667 161.45 205.667 161.45L253.773 161.23C267.423 141.745 271.826 122.811 269.074 100.685C268.854 98.9233 269.845 96.3914 272.376 96.1712C275.679 95.841 276.449 100.134 276.67 101.785C283.605 153.194 244.966 199.869 196.75 204.933C196.75 204.822 191.136 158.698 188.604 139.434Z" fill="#006C35"/>
<path fill-rule="evenodd" clip-rule="evenodd" d="M265.221 102.336C264.891 100.905 264.45 97.4923 261.148 97.7124C257.735 97.9326 257.735 101.565 257.956 103.327C259.827 125.893 255.974 137.892 244.085 155.726H253.552C263.79 137.892 267.533 120.83 265.221 102.336Z" fill="#006C35"/>
<path fill-rule="evenodd" clip-rule="evenodd" d="M253.332 104.317C253.002 102.886 252.562 99.4737 249.259 99.6939C245.847 99.914 245.847 103.547 246.067 105.308C246.837 128.535 242.984 138.773 228.564 155.726H238.911C250.69 138.553 255.754 122.811 253.332 104.317Z" fill="#006C35"/>
<path fill-rule="evenodd" clip-rule="evenodd" d="M241.113 106.079C240.783 104.648 240.342 101.235 237.04 101.455C233.627 101.675 233.627 105.308 233.848 107.069C235.719 129.636 224.601 146.589 208.639 155.726H222.729C237.15 140.534 243.535 124.572 241.113 106.079Z" fill="#006C35"/>
<path fill-rule="evenodd" clip-rule="evenodd" d="M177.155 139.544C177.485 137.232 174.954 134.81 172.752 134.7C170.77 134.59 168.899 136.131 168.128 138.333C165.046 147.249 160.092 161.56 160.092 161.56L111.987 161.34C98.3363 141.855 93.933 122.921 96.6851 100.795C96.9052 99.0334 95.9145 96.5015 93.3826 96.2813C90.0801 95.9511 89.3096 100.244 89.0894 101.896C82.1542 153.304 120.793 199.979 169.009 205.043C169.009 205.043 174.623 158.918 177.155 139.544Z" fill="#006C35"/>
<path fill-rule="evenodd" clip-rule="evenodd" d="M100.538 102.556C100.868 101.125 101.309 97.7124 104.611 97.9325C108.024 98.1527 108.024 101.785 107.803 103.547C105.932 126.114 109.785 138.113 121.674 155.946H112.207C101.969 138.113 98.2262 120.94 100.538 102.556Z" fill="#006C35"/>
<path fill-rule="evenodd" clip-rule="evenodd" d="M112.427 104.538C112.757 103.106 113.197 99.6939 116.5 99.9141C119.912 100.134 119.912 103.767 119.692 105.528C118.922 128.756 122.775 138.993 137.195 155.946H126.848C115.069 138.773 110.005 122.921 112.427 104.538Z" fill="#006C35"/>
<path fill-rule="evenodd" clip-rule="evenodd" d="M124.536 106.299C124.866 104.868 125.306 101.455 128.609 101.675C132.021 101.896 132.021 105.528 131.801 107.29C129.93 129.856 141.048 146.809 157.01 155.946H143.03C128.499 140.755 122.224 124.793 124.536 106.299Z" fill="#006C35"/>
<path d="M111.766 46.9645C112.757 43.8822 115.179 42.0108 117.381 40.0293C129.269 29.1312 142.92 21.6456 158.441 17.6826C170.33 14.6003 182.439 13.9398 194.658 15.481C211.171 17.5725 226.252 23.517 239.572 33.5345C243.535 36.5067 247.278 40.0293 250.91 43.4419C251.901 44.4326 252.452 45.8637 253.222 47.0746C253.222 47.9552 253.222 48.946 253.222 49.8266C252.782 50.8174 252.341 51.9182 251.791 52.7989C249.149 56.3215 244.416 56.6517 241.003 53.5694C238.361 51.2577 235.939 48.7258 233.187 46.6342C221.298 37.2773 207.868 31.4429 192.897 29.7917C166.587 26.5993 143.91 34.305 124.866 52.5787C123.655 53.6795 122.224 54.7803 120.683 55.2207C117.381 56.3215 113.748 54.2299 112.427 50.9275C112.317 50.4871 112.097 50.0468 111.876 49.7166C111.766 48.8359 111.766 47.8451 111.766 46.9645Z" fill="#006C35"/>
<path d="M185.191 41.3502C202.804 41.6805 220.087 49.1661 233.958 64.1373C236.93 67.2196 236.82 71.6229 233.848 74.3749C230.985 77.127 226.582 77.0169 223.72 73.9346C217.776 67.5498 210.84 62.7062 202.804 59.5138C182.329 51.2576 158.221 56.4315 142.92 72.2834C142.259 72.9439 141.599 73.7144 140.828 74.3749C138.076 76.9068 134.003 76.9068 131.251 74.485C128.499 71.9531 128.059 67.8801 130.37 65.0179C133.563 60.9449 137.526 57.6424 141.709 54.5601C153.818 45.8636 167.798 41.3502 185.191 41.3502Z" fill="#006C35"/>
<path d="M211.721 97.2721C209.079 97.162 207.318 96.0612 205.667 94.2999C203.575 91.9881 201.483 89.6764 199.172 87.805C189.815 80.5396 175.284 80.5396 165.927 87.805C163.285 89.8966 161.083 92.5385 158.772 94.9603C155.799 98.0426 151.066 98.0426 148.204 94.8503C145.892 92.2083 145.782 88.5756 147.983 85.6033C150.956 81.6404 154.478 78.2278 158.551 75.3657C177.596 62.4861 203.465 66.9994 217.005 85.4933C218.766 87.9151 219.207 90.5571 217.886 93.3091C216.565 95.9511 214.363 97.162 211.721 97.2721Z" fill="#006C35"/>
<path d="M182.439 126.884C173.523 126.884 166.477 119.619 166.477 110.702C166.587 101.896 173.743 94.7402 182.549 94.8503C191.466 94.8503 198.511 102.116 198.511 111.032C198.511 119.839 191.356 126.884 182.439 126.884Z" fill="#006C35"/>
<path d="M410.521 30.2102C411.528 34.2382 412.031 39.2732 412.031 45.3152C412.031 51.1055 411.528 56.1405 410.521 60.4203C411.528 64.4483 412.031 69.4834 412.031 75.5254C412.031 81.3157 411.528 86.3507 410.521 90.6305C411.528 94.6585 412.031 99.6935 412.031 105.736C412.031 111.526 411.528 116.561 410.521 120.841H399.192C400.199 124.869 400.703 129.904 400.703 135.946C400.703 141.736 400.199 146.771 399.192 151.051C400.199 155.079 400.703 160.114 400.703 166.156C400.703 171.946 400.199 176.981 399.192 181.261H391.64C392.647 185.289 393.15 190.324 393.15 196.366C393.15 202.156 392.647 207.191 391.64 211.471H368.982C367.975 207.191 367.472 202.156 367.472 196.366C367.472 190.324 367.975 185.289 368.982 181.261H361.429C360.422 176.981 359.919 171.946 359.919 166.156C359.919 160.114 360.422 155.079 361.429 151.051H338.772C339.779 155.079 340.282 160.114 340.282 166.156C340.282 171.946 339.779 176.981 338.772 181.261H331.219C332.226 185.289 332.73 190.324 332.73 196.366C332.73 202.156 332.226 207.191 331.219 211.471H308.562C307.555 207.191 307.051 202.156 307.051 196.366C307.051 190.324 307.555 185.289 308.562 181.261H301.009C300.002 176.981 299.499 171.946 299.499 166.156C299.499 160.114 300.002 155.079 301.009 151.051C300.002 146.771 299.499 141.736 299.499 135.946C299.499 129.904 300.002 124.869 301.009 120.841H289.68C288.673 116.561 288.17 111.526 288.17 105.736C288.17 99.6935 288.673 94.6585 289.68 90.6305C288.673 86.3507 288.17 81.3157 288.17 75.5254C288.17 69.4834 288.673 64.4483 289.68 60.4203C288.673 56.1405 288.17 51.1055 288.17 45.3152C288.17 39.2732 288.673 34.2382 289.68 30.2102C288.673 25.9304 288.17 20.8954 288.17 15.1051C288.17 9.06304 288.673 4.02801 289.68 0H319.891C320.898 4.02801 321.401 9.06304 321.401 15.1051C321.401 20.8954 320.898 25.9304 319.891 30.2102C320.898 34.2382 321.401 39.2732 321.401 45.3152C321.401 51.1055 320.898 56.1405 319.891 60.4203C320.898 64.4483 321.401 69.4834 321.401 75.5254C321.401 81.3157 320.898 86.3507 319.891 90.6305C320.898 94.6585 321.401 99.6935 321.401 105.736C321.401 111.526 320.898 116.561 319.891 120.841C320.898 124.869 321.401 129.904 321.401 135.946C321.401 141.736 320.898 146.771 319.891 151.051H331.219C330.212 146.771 329.709 141.736 329.709 135.946C329.709 129.904 330.212 124.869 331.219 120.841H338.772C337.765 116.561 337.261 111.526 337.261 105.736C337.261 99.6935 337.765 94.6585 338.772 90.6305C337.765 86.3507 337.261 81.3157 337.261 75.5254C337.261 69.4834 337.765 64.4483 338.772 60.4203C337.765 56.1405 337.261 51.1055 337.261 45.3152C337.261 39.2732 337.765 34.2382 338.772 30.2102C337.765 25.9304 337.261 20.8954 337.261 15.1051C337.261 9.06304 337.765 4.02801 338.772 0H361.429C362.436 4.02801 362.94 9.06304 362.94 15.1051C362.94 20.8954 362.436 25.9304 361.429 30.2102C362.436 34.2382 362.94 39.2732 362.94 45.3152C362.94 51.1055 362.436 56.1405 361.429 60.4203C362.436 64.4483 362.94 69.4834 362.94 75.5254C362.94 81.3157 362.436 86.3507 361.429 90.6305C362.436 94.6585 362.94 99.6935 362.94 105.736C362.94 111.526 362.436 116.561 361.429 120.841H368.982C369.989 124.869 370.493 129.904 370.493 135.946C370.493 141.736 369.989 146.771 368.982 151.051H380.311C379.304 146.771 378.8 141.736 378.8 135.946C378.8 129.904 379.304 124.869 380.311 120.841C379.304 116.561 378.8 111.526 378.8 105.736C378.8 99.6935 379.304 94.6585 380.311 90.6305C379.304 86.3507 378.8 81.3157 378.8 75.5254C378.8 69.4834 379.304 64.4483 380.311 60.4203C379.304 56.1405 378.8 51.1055 378.8 45.3152C378.8 39.2732 379.304 34.2382 380.311 30.2102C379.304 25.9304 378.8 20.8954 378.8 15.1051C378.8 9.06304 379.304 4.02801 380.311 0H410.521C411.528 4.02801 412.031 9.06304 412.031 15.1051C412.031 20.8954 411.528 25.9304 410.521 30.2102Z" fill="#006C35"/>
<path d="M108.124 181.261C109.131 185.289 109.635 190.324 109.635 196.366C109.635 202.156 109.131 207.191 108.124 211.471H2.38879C1.38179 207.191 0.878284 202.156 0.878284 196.366C0.878284 190.324 1.38179 185.289 2.38879 181.261C1.38179 176.981 0.878284 171.946 0.878284 166.156C0.878284 160.114 1.38179 155.079 2.38879 151.051C1.38179 146.771 0.878284 141.736 0.878284 135.946C0.878284 129.904 1.38179 124.869 2.38879 120.841C1.38179 116.561 0.878284 111.526 0.878284 105.736C0.878284 99.6935 1.38179 94.6585 2.38879 90.6305C1.38179 86.3507 0.878284 81.3157 0.878284 75.5254C0.878284 69.4834 1.38179 64.4483 2.38879 60.4203C1.38179 56.1405 0.878284 51.1055 0.878284 45.3152C0.878284 39.2732 1.38179 34.2382 2.38879 30.2102C1.38179 25.9304 0.878284 20.8954 0.878284 15.1051C0.878284 9.06304 1.38179 4.02801 2.38879 0H32.599C33.606 4.02801 34.1095 9.06304 34.1095 15.1051C34.1095 20.8954 33.606 25.9304 32.599 30.2102C33.606 34.2382 34.1095 39.2732 34.1095 45.3152C34.1095 51.1055 33.606 56.1405 32.599 60.4203C33.606 64.4483 34.1095 69.4834 34.1095 75.5254C34.1095 81.3157 33.606 86.3507 32.599 90.6305C33.606 94.6585 34.1095 99.6935 34.1095 105.736C34.1095 111.526 33.606 116.561 32.599 120.841C33.606 124.869 34.1095 129.904 34.1095 135.946C34.1095 141.736 33.606 146.771 32.599 151.051C33.606 155.079 34.1095 160.114 34.1095 166.156C34.1095 171.946 33.606 176.981 32.599 181.261H108.124Z" fill="#006C35"/>
<path d="M420.54 241.634C420.858 242.906 421.017 244.496 421.017 246.403C421.017 248.232 420.858 249.821 420.54 251.173C420.858 252.444 421.017 254.034 421.017 255.942C421.017 257.77 420.858 259.36 420.54 260.711C420.858 261.983 421.017 263.573 421.017 265.48C421.017 267.308 420.858 268.898 420.54 270.249C420.858 271.521 421.017 273.111 421.017 275.019C421.017 276.847 420.858 278.437 420.54 279.788C420.858 281.06 421.017 282.649 421.017 284.557C421.017 286.385 420.858 287.975 420.54 289.326C420.858 290.598 421.017 292.188 421.017 294.096C421.017 295.924 420.858 297.513 420.54 298.865H411.002C410.684 297.513 410.525 295.924 410.525 294.096C410.525 292.188 410.684 290.598 411.002 289.326C410.684 287.975 410.525 286.385 410.525 284.557C410.525 282.649 410.684 281.06 411.002 279.788C410.684 278.437 410.525 276.847 410.525 275.019C410.525 273.111 410.684 271.521 411.002 270.249H391.925C392.243 271.521 392.402 273.111 392.402 275.019C392.402 276.847 392.243 278.437 391.925 279.788C392.243 281.06 392.402 282.649 392.402 284.557C392.402 286.385 392.243 287.975 391.925 289.326C392.243 290.598 392.402 292.188 392.402 294.096C392.402 295.924 392.243 297.513 391.925 298.865H382.387C382.069 297.513 381.91 295.924 381.91 294.096C381.91 292.188 382.069 290.598 382.387 289.326C382.069 287.975 381.91 286.385 381.91 284.557C381.91 282.649 382.069 281.06 382.387 279.788C382.069 278.437 381.91 276.847 381.91 275.019C381.91 273.111 382.069 271.521 382.387 270.249C382.069 268.898 381.91 267.308 381.91 265.48C381.91 263.573 382.069 261.983 382.387 260.711C382.069 259.36 381.91 257.77 381.91 255.942C381.91 254.034 382.069 252.444 382.387 251.173C382.069 249.821 381.91 248.232 381.91 246.403C381.91 244.496 382.069 242.906 382.387 241.634C382.069 240.283 381.91 238.693 381.91 236.865C381.91 234.957 382.069 233.367 382.387 232.096H391.925C392.243 233.367 392.402 234.957 392.402 236.865C392.402 238.693 392.243 240.283 391.925 241.634C392.243 242.906 392.402 244.496 392.402 246.403C392.402 248.232 392.243 249.821 391.925 251.173C392.243 252.444 392.402 254.034 392.402 255.942C392.402 257.77 392.243 259.36 391.925 260.711H411.002C410.684 259.36 410.525 257.77 410.525 255.942C410.525 254.034 410.684 252.444 411.002 251.173C410.684 249.821 410.525 248.232 410.525 246.403C410.525 244.496 410.684 242.906 411.002 241.634C410.684 240.283 410.525 238.693 410.525 236.865C410.525 234.957 410.684 233.367 411.002 232.096H420.54C420.858 233.367 421.017 234.957 421.017 236.865C421.017 238.693 420.858 240.283 420.54 241.634Z" fill="#006C35"/>
<path d="M373.279 236.865C373.279 238.693 373.12 240.283 372.802 241.634H358.494C358.812 242.906 358.971 244.496 358.971 246.403C358.971 248.232 358.812 249.821 358.494 251.173C358.812 252.444 358.971 254.034 358.971 255.942C358.971 257.77 358.812 259.36 358.494 260.711C358.812 261.983 358.971 263.573 358.971 265.48C358.971 267.308 358.812 268.898 358.494 270.249C358.812 271.521 358.971 273.111 358.971 275.019C358.971 276.847 358.812 278.437 358.494 279.788C358.812 281.06 358.971 282.649 358.971 284.557C358.971 286.385 358.812 287.975 358.494 289.326C358.812 290.598 358.971 292.188 358.971 294.096C358.971 295.924 358.812 297.513 358.494 298.865H348.956C348.638 297.513 348.479 295.924 348.479 294.096C348.479 292.188 348.638 290.598 348.956 289.326C348.638 287.975 348.479 286.385 348.479 284.557C348.479 282.649 348.638 281.06 348.956 279.788C348.638 278.437 348.479 276.847 348.479 275.019C348.479 273.111 348.638 271.521 348.956 270.249C348.638 268.898 348.479 267.308 348.479 265.48C348.479 263.573 348.638 261.983 348.956 260.711C348.638 259.36 348.479 257.77 348.479 255.942C348.479 254.034 348.638 252.444 348.956 251.173C348.638 249.821 348.479 248.232 348.479 246.403C348.479 244.496 348.638 242.906 348.956 241.634H334.648C334.33 240.283 334.171 238.693 334.171 236.865C334.171 234.957 334.33 233.367 334.648 232.096H372.802C373.12 233.367 373.279 234.957 373.279 236.865Z" fill="#006C35"/>
<path d="M325.063 260.711C325.381 261.983 325.54 263.573 325.54 265.48C325.54 267.308 325.381 268.898 325.063 270.249C325.381 271.521 325.54 273.111 325.54 275.019C325.54 276.847 325.381 278.437 325.063 279.788H320.294C320.612 281.06 320.771 282.649 320.771 284.557C320.771 286.385 320.612 287.975 320.294 289.326H315.525C315.842 290.598 316.001 292.188 316.001 294.096C316.001 295.924 315.842 297.513 315.525 298.865H286.909C286.591 297.513 286.432 295.924 286.432 294.096C286.432 292.188 286.591 290.598 286.909 289.326C286.591 287.975 286.432 286.385 286.432 284.557C286.432 282.649 286.591 281.06 286.909 279.788C286.591 278.437 286.432 276.847 286.432 275.019C286.432 273.111 286.591 271.521 286.909 270.249C286.591 268.898 286.432 267.308 286.432 265.48C286.432 263.573 286.591 261.983 286.909 260.711C286.591 259.36 286.432 257.77 286.432 255.942C286.432 254.034 286.591 252.444 286.909 251.173C286.591 249.821 286.432 248.232 286.432 246.403C286.432 244.496 286.591 242.906 286.909 241.634C286.591 240.283 286.432 238.693 286.432 236.865C286.432 234.957 286.591 233.367 286.909 232.096H315.525C315.842 233.367 316.001 234.957 316.001 236.865C316.001 238.693 315.842 240.283 315.525 241.634H320.294C320.612 242.906 320.771 244.496 320.771 246.403C320.771 248.232 320.612 249.821 320.294 251.173H325.063C325.381 252.444 325.54 254.034 325.54 255.942C325.54 257.77 325.381 259.36 325.063 260.711ZM315.525 279.788C315.207 278.437 315.048 276.847 315.048 275.019C315.048 273.111 315.207 271.521 315.525 270.249C315.207 268.898 315.048 267.308 315.048 265.48C315.048 263.573 315.207 261.983 315.525 260.711C315.207 259.36 315.048 257.77 315.048 255.942C315.048 254.034 315.207 252.444 315.525 251.173H310.755C310.437 249.821 310.278 248.232 310.278 246.403C310.278 244.496 310.437 242.906 310.755 241.634H296.448C296.766 242.906 296.925 244.496 296.925 246.403C296.925 248.232 296.766 249.821 296.448 251.173C296.766 252.444 296.925 254.034 296.925 255.942C296.925 257.77 296.766 259.36 296.448 260.711C296.766 261.983 296.925 263.573 296.925 265.48C296.925 267.308 296.766 268.898 296.448 270.249C296.766 271.521 296.925 273.111 296.925 275.019C296.925 276.847 296.766 278.437 296.448 279.788C296.766 281.06 296.925 282.649 296.925 284.557C296.925 286.385 296.766 287.975 296.448 289.326H310.755C310.437 287.975 310.278 286.385 310.278 284.557C310.278 282.649 310.437 281.06 310.755 279.788H315.525Z" fill="#006C35"/>
<path d="M270.17 289.326C270.488 290.598 270.647 292.188 270.647 294.096C270.647 295.924 270.488 297.513 270.17 298.865H246.324C246.006 297.513 245.848 295.924 245.848 294.096C245.848 292.188 246.006 290.598 246.324 289.326H253.478C253.16 287.975 253.001 286.385 253.001 284.557C253.001 282.649 253.16 281.06 253.478 279.788C253.16 278.437 253.001 276.847 253.001 275.019C253.001 273.111 253.16 271.521 253.478 270.249C253.16 268.898 253.001 267.308 253.001 265.48C253.001 263.573 253.16 261.983 253.478 260.711C253.16 259.36 253.001 257.77 253.001 255.942C253.001 254.034 253.16 252.444 253.478 251.173C253.16 249.821 253.001 248.232 253.001 246.403C253.001 244.496 253.16 242.906 253.478 241.634H246.324C246.006 240.283 245.848 238.693 245.848 236.865C245.848 234.957 246.006 233.367 246.324 232.096H270.17C270.488 233.367 270.647 234.957 270.647 236.865C270.647 238.693 270.488 240.283 270.17 241.634H263.017C263.335 242.906 263.494 244.496 263.494 246.403C263.494 248.232 263.335 249.821 263.017 251.173C263.335 252.444 263.494 254.034 263.494 255.942C263.494 257.77 263.335 259.36 263.017 260.711C263.335 261.983 263.494 263.573 263.494 265.48C263.494 267.308 263.335 268.898 263.017 270.249C263.335 271.521 263.494 273.111 263.494 275.019C263.494 276.847 263.335 278.437 263.017 279.788C263.335 281.06 263.494 282.649 263.494 284.557C263.494 286.385 263.335 287.975 263.017 289.326H270.17Z" fill="#006C35"/>
<path d="M229.585 241.634C229.903 242.906 230.062 244.496 230.062 246.403C230.062 248.232 229.903 249.821 229.585 251.173C229.903 252.444 230.062 254.034 230.062 255.942C230.062 257.77 229.903 259.36 229.585 260.711C229.903 261.983 230.062 263.573 230.062 265.48C230.062 267.308 229.903 268.898 229.585 270.249H226.009C226.326 271.521 226.485 273.111 226.485 275.019C226.485 276.847 226.326 278.437 226.009 279.788C226.326 281.06 226.485 282.649 226.485 284.557C226.485 286.385 226.326 287.975 226.009 289.326H223.624C223.942 290.598 224.101 292.188 224.101 294.096C224.101 295.924 223.942 297.513 223.624 298.865H216.47C216.152 297.513 215.993 295.924 215.993 294.096C215.993 292.188 216.152 290.598 216.47 289.326H214.086C213.768 287.975 213.609 286.385 213.609 284.557C213.609 282.649 213.768 281.06 214.086 279.788H206.932C207.25 281.06 207.409 282.649 207.409 284.557C207.409 286.385 207.25 287.975 206.932 289.326H204.547C204.865 290.598 205.024 292.188 205.024 294.096C205.024 295.924 204.865 297.513 204.547 298.865H197.393C197.075 297.513 196.916 295.924 196.916 294.096C196.916 292.188 197.075 290.598 197.393 289.326H195.009C194.691 287.975 194.532 286.385 194.532 284.557C194.532 282.649 194.691 281.06 195.009 279.788C194.691 278.437 194.532 276.847 194.532 275.019C194.532 273.111 194.691 271.521 195.009 270.249H191.432C191.114 268.898 190.955 267.308 190.955 265.48C190.955 263.573 191.114 261.983 191.432 260.711C191.114 259.36 190.955 257.77 190.955 255.942C190.955 254.034 191.114 252.444 191.432 251.173C191.114 249.821 190.955 248.232 190.955 246.403C190.955 244.496 191.114 242.906 191.432 241.634C191.114 240.283 190.955 238.693 190.955 236.865C190.955 234.957 191.114 233.367 191.432 232.096H200.97C201.288 233.367 201.447 234.957 201.447 236.865C201.447 238.693 201.288 240.283 200.97 241.634C201.288 242.906 201.447 244.496 201.447 246.403C201.447 248.232 201.288 249.821 200.97 251.173C201.288 252.444 201.447 254.034 201.447 255.942C201.447 257.77 201.288 259.36 200.97 260.711C201.288 261.983 201.447 263.573 201.447 265.48C201.447 267.308 201.288 268.898 200.97 270.249C201.288 271.521 201.447 273.111 201.447 275.019C201.447 276.847 201.288 278.437 200.97 279.788H204.547C204.229 278.437 204.07 276.847 204.07 275.019C204.07 273.111 204.229 271.521 204.547 270.249H206.932C206.614 268.898 206.455 267.308 206.455 265.48C206.455 263.573 206.614 261.983 206.932 260.711C206.614 259.36 206.455 257.77 206.455 255.942C206.455 254.034 206.614 252.444 206.932 251.173C206.614 249.821 206.455 248.232 206.455 246.403C206.455 244.496 206.614 242.906 206.932 241.634C206.614 240.283 206.455 238.693 206.455 236.865C206.455 234.957 206.614 233.367 206.932 232.096H214.086C214.403 233.367 214.562 234.957 214.562 236.865C214.562 238.693 214.403 240.283 214.086 241.634C214.403 242.906 214.562 244.496 214.562 246.403C214.562 248.232 214.403 249.821 214.086 251.173C214.403 252.444 214.562 254.034 214.562 255.942C214.562 257.77 214.403 259.36 214.086 260.711C214.403 261.983 214.562 263.573 214.562 265.48C214.562 267.308 214.403 268.898 214.086 270.249H216.47C216.788 271.521 216.947 273.111 216.947 275.019C216.947 276.847 216.788 278.437 216.47 279.788H220.047C219.729 278.437 219.57 276.847 219.57 275.019C219.57 273.111 219.729 271.521 220.047 270.249C219.729 268.898 219.57 267.308 219.57 265.48C219.57 263.573 219.729 261.983 220.047 260.711C219.729 259.36 219.57 257.77 219.57 255.942C219.57 254.034 219.729 252.444 220.047 251.173C219.729 249.821 219.57 248.232 219.57 246.403C219.57 244.496 219.729 242.906 220.047 241.634C219.729 240.283 219.57 238.693 219.57 236.865C219.57 234.957 219.729 233.367 220.047 232.096H229.585C229.903 233.367 230.062 234.957 230.062 236.865C230.062 238.693 229.903 240.283 229.585 241.634Z" fill="#006C35"/>
<path d="M181.847 260.711C182.165 261.983 182.324 263.573 182.324 265.48C182.324 267.308 182.165 268.898 181.847 270.249C182.165 271.521 182.324 273.111 182.324 275.019C182.324 276.847 182.165 278.437 181.847 279.788H177.078C177.396 281.06 177.555 282.649 177.555 284.557C177.555 286.385 177.396 287.975 177.078 289.326H172.308C172.626 290.598 172.785 292.188 172.785 294.096C172.785 295.924 172.626 297.513 172.308 298.865H143.693C143.375 297.513 143.216 295.924 143.216 294.096C143.216 292.188 143.375 290.598 143.693 289.326C143.375 287.975 143.216 286.385 143.216 284.557C143.216 282.649 143.375 281.06 143.693 279.788C143.375 278.437 143.216 276.847 143.216 275.019C143.216 273.111 143.375 271.521 143.693 270.249C143.375 268.898 143.216 267.308 143.216 265.48C143.216 263.573 143.375 261.983 143.693 260.711C143.375 259.36 143.216 257.77 143.216 255.942C143.216 254.034 143.375 252.444 143.693 251.173C143.375 249.821 143.216 248.232 143.216 246.403C143.216 244.496 143.375 242.906 143.693 241.634C143.375 240.283 143.216 238.693 143.216 236.865C143.216 234.957 143.375 233.367 143.693 232.096H172.308C172.626 233.367 172.785 234.957 172.785 236.865C172.785 238.693 172.626 240.283 172.308 241.634H177.078C177.396 242.906 177.555 244.496 177.555 246.403C177.555 248.232 177.396 249.821 177.078 251.173H181.847C182.165 252.444 182.324 254.034 182.324 255.942C182.324 257.77 182.165 259.36 181.847 260.711ZM172.308 279.788C171.99 278.437 171.831 276.847 171.831 275.019C171.831 273.111 171.99 271.521 172.308 270.249C171.99 268.898 171.831 267.308 171.831 265.48C171.831 263.573 171.99 261.983 172.308 260.711C171.99 259.36 171.831 257.77 171.831 255.942C171.831 254.034 171.99 252.444 172.308 251.173H167.539C167.221 249.821 167.062 248.232 167.062 246.403C167.062 244.496 167.221 242.906 167.539 241.634H153.232C153.549 242.906 153.708 244.496 153.708 246.403C153.708 248.232 153.549 249.821 153.232 251.173C153.549 252.444 153.708 254.034 153.708 255.942C153.708 257.77 153.549 259.36 153.232 260.711C153.549 261.983 153.708 263.573 153.708 265.48C153.708 267.308 153.549 268.898 153.232 270.249C153.549 271.521 153.708 273.111 153.708 275.019C153.708 276.847 153.549 278.437 153.232 279.788C153.549 281.06 153.708 282.649 153.708 284.557C153.708 286.385 153.549 287.975 153.232 289.326H167.539C167.221 287.975 167.062 286.385 167.062 284.557C167.062 282.649 167.221 281.06 167.539 279.788H172.308Z" fill="#006C35"/>
<path d="M134.108 241.634C134.426 242.906 134.585 244.496 134.585 246.403C134.585 248.232 134.426 249.821 134.108 251.173C134.426 252.444 134.585 254.034 134.585 255.942C134.585 257.77 134.426 259.36 134.108 260.711C134.426 261.983 134.585 263.573 134.585 265.48C134.585 267.308 134.426 268.898 134.108 270.249C134.426 271.521 134.585 273.111 134.585 275.019C134.585 276.847 134.426 278.437 134.108 279.788C134.426 281.06 134.585 282.649 134.585 284.557C134.585 286.385 134.426 287.975 134.108 289.326C134.426 290.598 134.585 292.188 134.585 294.096C134.585 295.924 134.426 297.513 134.108 298.865H124.57C124.252 297.513 124.093 295.924 124.093 294.096C124.093 292.188 124.252 290.598 124.57 289.326H118.608C118.29 287.975 118.131 286.385 118.131 284.557C118.131 282.649 118.29 281.06 118.608 279.788H115.031C114.713 278.437 114.554 276.847 114.554 275.019C114.554 273.111 114.713 271.521 115.031 270.249H110.262C109.944 268.898 109.785 267.308 109.785 265.48C109.785 263.573 109.944 261.983 110.262 260.711H105.493C105.811 261.983 105.97 263.573 105.97 265.48C105.97 267.308 105.811 268.898 105.493 270.249C105.811 271.521 105.97 273.111 105.97 275.019C105.97 276.847 105.811 278.437 105.493 279.788C105.811 281.06 105.97 282.649 105.97 284.557C105.97 286.385 105.811 287.975 105.493 289.326C105.811 290.598 105.97 292.188 105.97 294.096C105.97 295.924 105.811 297.513 105.493 298.865H95.9544C95.6364 297.513 95.4775 295.924 95.4775 294.096C95.4775 292.188 95.6364 290.598 95.9544 289.326C95.6364 287.975 95.4775 286.385 95.4775 284.557C95.4775 282.649 95.6364 281.06 95.9544 279.788C95.6364 278.437 95.4775 276.847 95.4775 275.019C95.4775 273.111 95.6364 271.521 95.9544 270.249C95.6364 268.898 95.4775 267.308 95.4775 265.48C95.4775 263.573 95.6364 261.983 95.9544 260.711C95.6364 259.36 95.4775 257.77 95.4775 255.942C95.4775 254.034 95.6364 252.444 95.9544 251.173C95.6364 249.821 95.4775 248.232 95.4775 246.403C95.4775 244.496 95.6364 242.906 95.9544 241.634C95.6364 240.283 95.4775 238.693 95.4775 236.865C95.4775 234.957 95.6364 233.367 95.9544 232.096H107.877C108.195 233.367 108.354 234.957 108.354 236.865C108.354 238.693 108.195 240.283 107.877 241.634H111.454C111.772 242.906 111.931 244.496 111.931 246.403C111.931 248.232 111.772 249.821 111.454 251.173H115.031C115.349 252.444 115.508 254.034 115.508 255.942C115.508 257.77 115.349 259.36 115.031 260.711H119.8C120.118 261.983 120.277 263.573 120.277 265.48C120.277 267.308 120.118 268.898 119.8 270.249H124.57C124.252 268.898 124.093 267.308 124.093 265.48C124.093 263.573 124.252 261.983 124.57 260.711C124.252 259.36 124.093 257.77 124.093 255.942C124.093 254.034 124.252 252.444 124.57 251.173C124.252 249.821 124.093 248.232 124.093 246.403C124.093 244.496 124.252 242.906 124.57 241.634C124.252 240.283 124.093 238.693 124.093 236.865C124.093 234.957 124.252 233.367 124.57 232.096H134.108C134.426 233.367 134.585 234.957 134.585 236.865C134.585 238.693 134.426 240.283 134.108 241.634Z" fill="#006C35"/>
<path d="M86.8462 284.557C86.8462 286.385 86.6873 287.975 86.3693 289.326C86.6873 290.598 86.8462 292.188 86.8462 294.096C86.8462 295.924 86.6873 297.513 86.3693 298.865H76.8309C76.5129 297.513 76.354 295.924 76.354 294.096C76.354 292.188 76.5129 290.598 76.8309 289.326C76.5129 287.975 76.354 286.385 76.354 284.557C76.354 282.649 76.5129 281.06 76.8309 279.788H57.754C58.072 281.06 58.231 282.649 58.231 284.557C58.231 286.385 58.072 287.975 57.754 289.326C58.072 290.598 58.231 292.188 58.231 294.096C58.231 295.924 58.072 297.513 57.754 298.865H48.2156C47.8977 297.513 47.7387 295.924 47.7387 294.096C47.7387 292.188 47.8977 290.598 48.2156 289.326C47.8977 287.975 47.7387 286.385 47.7387 284.557C47.7387 282.649 47.8977 281.06 48.2156 279.788H51.7925C51.4746 278.437 51.3156 276.847 51.3156 275.019C51.3156 273.111 51.4746 271.521 51.7925 270.249C51.4746 268.898 51.3156 267.308 51.3156 265.48C51.3156 263.573 51.4746 261.983 51.7925 260.711H54.1771C53.8592 259.36 53.7002 257.77 53.7002 255.942C53.7002 254.034 53.8592 252.444 54.1771 251.173H57.754C57.4361 249.821 57.2771 248.232 57.2771 246.403C57.2771 244.496 57.4361 242.906 57.754 241.634H60.1386C59.8207 240.283 59.6617 238.693 59.6617 236.865C59.6617 234.957 59.8207 233.367 60.1386 232.096H74.4463C74.7642 233.367 74.9232 234.957 74.9232 236.865C74.9232 238.693 74.7642 240.283 74.4463 241.634H76.8309C77.1488 242.906 77.3078 244.496 77.3078 246.403C77.3078 248.232 77.1488 249.821 76.8309 251.173H80.4078C80.7257 252.444 80.8847 254.034 80.8847 255.942C80.8847 257.77 80.7257 259.36 80.4078 260.711H82.7924C83.1104 261.983 83.2693 263.573 83.2693 265.48C83.2693 267.308 83.1104 268.898 82.7924 270.249C83.1104 271.521 83.2693 273.111 83.2693 275.019C83.2693 276.847 83.1104 278.437 82.7924 279.788H86.3693C86.6873 281.06 86.8462 282.649 86.8462 284.557ZM73.254 270.249C72.936 268.898 72.7771 267.308 72.7771 265.48C72.7771 263.573 72.936 261.983 73.254 260.711H70.8694C70.5514 259.36 70.3925 257.77 70.3925 255.942C70.3925 254.034 70.5514 252.444 70.8694 251.173H63.7155C64.0335 252.444 64.1925 254.034 64.1925 255.942C64.1925 257.77 64.0335 259.36 63.7155 260.711H61.3309C61.6489 261.983 61.8079 263.573 61.8079 265.48C61.8079 267.308 61.6489 268.898 61.3309 270.249H73.254Z" fill="#006C35"/>
<path d="M39.1076 255.942C39.1076 257.77 38.9486 259.36 38.6306 260.711H33.8614C34.1794 261.983 34.3383 263.573 34.3383 265.48C34.3383 267.308 34.1794 268.898 33.8614 270.249H38.6306C38.9486 271.521 39.1076 273.111 39.1076 275.019C39.1076 276.847 38.9486 278.437 38.6306 279.788C38.9486 281.06 39.1076 282.649 39.1076 284.557C39.1076 286.385 38.9486 287.975 38.6306 289.326H33.8614C34.1794 290.598 34.3383 292.188 34.3383 294.096C34.3383 295.924 34.1794 297.513 33.8614 298.865H0.476921C0.158974 297.513 0 295.924 0 294.096C0 292.188 0.158974 290.598 0.476921 289.326C0.158974 287.975 0 286.385 0 284.557C0 282.649 0.158974 281.06 0.476921 279.788C0.158974 278.437 0 276.847 0 275.019C0 273.111 0.158974 271.521 0.476921 270.249C0.158974 268.898 0 267.308 0 265.48C0 263.573 0.158974 261.983 0.476921 260.711C0.158974 259.36 0 257.77 0 255.942C0 254.034 0.158974 252.444 0.476921 251.173C0.158974 249.821 0 248.232 0 246.403C0 244.496 0.158974 242.906 0.476921 241.634C0.158974 240.283 0 238.693 0 236.865C0 234.957 0.158974 233.368 0.476921 232.096H33.8614C34.1794 233.368 34.3383 234.957 34.3383 236.865C34.3383 238.693 34.1794 240.283 33.8614 241.634H38.6306C38.9486 242.906 39.1076 244.496 39.1076 246.403C39.1076 248.232 38.9486 249.821 38.6306 251.173C38.9486 252.444 39.1076 254.034 39.1076 255.942ZM29.0922 260.711C28.7743 259.36 28.6153 257.77 28.6153 255.942C28.6153 254.034 28.7743 252.444 29.0922 251.173C28.7743 249.821 28.6153 248.232 28.6153 246.403C28.6153 244.496 28.7743 242.906 29.0922 241.634H10.0154C10.3333 242.906 10.4923 244.496 10.4923 246.403C10.4923 248.232 10.3333 249.821 10.0154 251.173C10.3333 252.444 10.4923 254.034 10.4923 255.942C10.4923 257.77 10.3333 259.36 10.0154 260.711H29.0922ZM29.0922 279.788C28.7743 278.437 28.6153 276.847 28.6153 275.019C28.6153 273.111 28.7743 271.521 29.0922 270.249H10.0154C10.3333 271.521 10.4923 273.111 10.4923 275.019C10.4923 276.847 10.3333 278.437 10.0154 279.788C10.3333 281.06 10.4923 282.649 10.4923 284.557C10.4923 286.385 10.3333 287.975 10.0154 289.326H29.0922C28.7743 287.975 28.6153 286.385 28.6153 284.557C28.6153 282.649 28.7743 281.06 29.0922 279.788Z" fill="#006C35"/>
<path d="M418.133 373.587C418.609 375.495 418.848 377.879 418.848 380.741C418.848 383.483 418.609 385.868 418.133 387.895C418.609 389.802 418.848 392.187 418.848 395.048C418.848 397.791 418.609 400.175 418.133 402.202H410.979C411.456 404.11 411.694 406.495 411.694 409.356C411.694 412.098 411.456 414.483 410.979 416.51H368.056C367.579 414.483 367.34 412.098 367.34 409.356C367.34 406.495 367.579 404.11 368.056 402.202H360.902C360.425 400.175 360.187 397.791 360.187 395.048C360.187 392.187 360.425 389.802 360.902 387.895H375.21C375.687 389.802 375.925 392.187 375.925 395.048C375.925 397.791 375.687 400.175 375.21 402.202H403.825C403.348 400.175 403.11 397.791 403.11 395.048C403.11 392.187 403.348 389.802 403.825 387.895C403.348 385.868 403.11 383.483 403.11 380.741C403.11 377.879 403.348 375.495 403.825 373.587H368.056C367.579 371.56 367.34 369.175 367.34 366.433C367.34 363.572 367.579 361.187 368.056 359.279H360.902C360.425 357.252 360.187 354.868 360.187 352.125C360.187 349.264 360.425 346.879 360.902 344.972C360.425 342.945 360.187 340.56 360.187 337.818C360.187 334.956 360.425 332.572 360.902 330.664H368.056C367.579 328.637 367.34 326.252 367.34 323.51C367.34 320.649 367.579 318.264 368.056 316.356H410.979C411.456 318.264 411.694 320.649 411.694 323.51C411.694 326.252 411.456 328.637 410.979 330.664H418.133C418.609 332.572 418.848 334.956 418.848 337.818C418.848 340.56 418.609 342.945 418.133 344.972H403.825C403.348 342.945 403.11 340.56 403.11 337.818C403.11 334.956 403.348 332.572 403.825 330.664H375.21C375.687 332.572 375.925 334.956 375.925 337.818C375.925 340.56 375.687 342.945 375.21 344.972C375.687 346.879 375.925 349.264 375.925 352.125C375.925 354.868 375.687 357.252 375.21 359.279H410.979C411.456 361.187 411.694 363.572 411.694 366.433C411.694 369.175 411.456 371.56 410.979 373.587H418.133Z" fill="#006C35"/>
<path d="M346.524 330.664C347.001 332.572 347.24 334.956 347.24 337.818C347.24 340.56 347.001 342.945 346.524 344.972C347.001 346.879 347.24 349.264 347.24 352.125C347.24 354.868 347.001 357.252 346.524 359.279C347.001 361.187 347.24 363.572 347.24 366.433C347.24 369.175 347.001 371.56 346.524 373.587C347.001 375.495 347.24 377.879 347.24 380.741C347.24 383.483 347.001 385.868 346.524 387.895C347.001 389.802 347.24 392.187 347.24 395.048C347.24 397.791 347.001 400.175 346.524 402.202C347.001 404.11 347.24 406.495 347.24 409.356C347.24 412.098 347.001 414.483 346.524 416.51H332.217C331.74 414.483 331.501 412.098 331.501 409.356C331.501 406.495 331.74 404.11 332.217 402.202C331.74 400.175 331.501 397.791 331.501 395.048C331.501 392.187 331.74 389.802 332.217 387.895C331.74 385.868 331.501 383.483 331.501 380.741C331.501 377.879 331.74 375.495 332.217 373.587C331.74 371.56 331.501 369.175 331.501 366.433C331.501 363.572 331.74 361.187 332.217 359.279C331.74 357.252 331.501 354.868 331.501 352.125C331.501 349.264 331.74 346.879 332.217 344.972H326.851C327.328 346.879 327.567 349.264 327.567 352.125C327.567 354.868 327.328 357.252 326.851 359.279C327.328 361.187 327.567 363.572 327.567 366.433C327.567 369.175 327.328 371.56 326.851 373.587H323.275C323.751 375.495 323.99 377.879 323.99 380.741C323.99 383.483 323.751 385.868 323.275 387.895C323.751 389.802 323.99 392.187 323.99 395.048C323.99 397.791 323.751 400.175 323.275 402.202H312.544C312.067 400.175 311.828 397.791 311.828 395.048C311.828 392.187 312.067 389.802 312.544 387.895C312.067 385.868 311.828 383.483 311.828 380.741C311.828 377.879 312.067 375.495 312.544 373.587H308.967C308.49 371.56 308.252 369.175 308.252 366.433C308.252 363.572 308.49 361.187 308.967 359.279C308.49 357.252 308.252 354.868 308.252 352.125C308.252 349.264 308.49 346.879 308.967 344.972H303.602C304.078 346.879 304.317 349.264 304.317 352.125C304.317 354.868 304.078 357.252 303.602 359.279C304.078 361.187 304.317 363.572 304.317 366.433C304.317 369.175 304.078 371.56 303.602 373.587C304.078 375.495 304.317 377.879 304.317 380.741C304.317 383.483 304.078 385.868 303.602 387.895C304.078 389.802 304.317 392.187 304.317 395.048C304.317 397.791 304.078 400.175 303.602 402.202C304.078 404.11 304.317 406.495 304.317 409.356C304.317 412.098 304.078 414.483 303.602 416.51H289.294C288.817 414.483 288.578 412.098 288.578 409.356C288.578 406.495 288.817 404.11 289.294 402.202C288.817 400.175 288.578 397.791 288.578 395.048C288.578 392.187 288.817 389.802 289.294 387.895C288.817 385.868 288.578 383.483 288.578 380.741C288.578 377.879 288.817 375.495 289.294 373.587C288.817 371.56 288.578 369.175 288.578 366.433C288.578 363.572 288.817 361.187 289.294 359.279C288.817 357.252 288.578 354.868 288.578 352.125C288.578 349.264 288.817 346.879 289.294 344.972C288.817 342.945 288.578 340.56 288.578 337.818C288.578 334.956 288.817 332.572 289.294 330.664C288.817 328.637 288.578 326.252 288.578 323.51C288.578 320.649 288.817 318.264 289.294 316.356H307.178C307.655 318.264 307.894 320.649 307.894 323.51C307.894 326.252 307.655 328.637 307.178 330.664H312.544C313.021 332.572 313.259 334.956 313.259 337.818C313.259 340.56 313.021 342.945 312.544 344.972H315.226C315.703 346.879 315.942 349.264 315.942 352.125C315.942 354.868 315.703 357.252 315.226 359.279H320.592C320.115 357.252 319.876 354.868 319.876 352.125C319.876 349.264 320.115 346.879 320.592 344.972H323.275C322.798 342.945 322.559 340.56 322.559 337.818C322.559 334.956 322.798 332.572 323.275 330.664H328.64C328.163 328.637 327.925 326.252 327.925 323.51C327.925 320.649 328.163 318.264 328.64 316.356H346.524C347.001 318.264 347.24 320.649 347.24 323.51C347.24 326.252 347.001 328.637 346.524 330.664Z" fill="#006C35"/>
<path d="M275.632 395.048C275.632 397.791 275.393 400.175 274.916 402.202C275.393 404.11 275.632 406.495 275.632 409.356C275.632 412.098 275.393 414.483 274.916 416.51H260.609C260.132 414.483 259.893 412.098 259.893 409.356C259.893 406.495 260.132 404.11 260.609 402.202C260.132 400.175 259.893 397.791 259.893 395.048C259.893 392.187 260.132 389.802 260.609 387.895H231.993C232.47 389.802 232.709 392.187 232.709 395.048C232.709 397.791 232.47 400.175 231.993 402.202C232.47 404.11 232.709 406.495 232.709 409.356C232.709 412.098 232.47 414.483 231.993 416.51H217.686C217.209 414.483 216.97 412.098 216.97 409.356C216.97 406.495 217.209 404.11 217.686 402.202C217.209 400.175 216.97 397.791 216.97 395.048C216.97 392.187 217.209 389.802 217.686 387.895H223.051C222.574 385.868 222.336 383.483 222.336 380.741C222.336 377.879 222.574 375.495 223.051 373.587C222.574 371.56 222.336 369.175 222.336 366.433C222.336 363.572 222.574 361.187 223.051 359.279H226.628C226.151 357.252 225.913 354.868 225.913 352.125C225.913 349.264 226.151 346.879 226.628 344.972H231.993C231.517 342.945 231.278 340.56 231.278 337.818C231.278 334.956 231.517 332.572 231.993 330.664H235.57C235.093 328.637 234.855 326.252 234.855 323.51C234.855 320.649 235.093 318.264 235.57 316.356H257.032C257.509 318.264 257.747 320.649 257.747 323.51C257.747 326.252 257.509 328.637 257.032 330.664H260.609C261.086 332.572 261.324 334.956 261.324 337.818C261.324 340.56 261.086 342.945 260.609 344.972H265.974C266.451 346.879 266.689 349.264 266.689 352.125C266.689 354.868 266.451 357.252 265.974 359.279H269.551C270.028 361.187 270.266 363.572 270.266 366.433C270.266 369.175 270.028 371.56 269.551 373.587C270.028 375.495 270.266 377.879 270.266 380.741C270.266 383.483 270.028 385.868 269.551 387.895H274.916C275.393 389.802 275.632 392.187 275.632 395.048ZM255.243 373.587C254.766 371.56 254.528 369.175 254.528 366.433C254.528 363.572 254.766 361.187 255.243 359.279H251.666C251.19 357.252 250.951 354.868 250.951 352.125C250.951 349.264 251.19 346.879 251.666 344.972H240.936C241.413 346.879 241.651 349.264 241.651 352.125C241.651 354.868 241.413 357.252 240.936 359.279H237.359C237.836 361.187 238.074 363.572 238.074 366.433C238.074 369.175 237.836 371.56 237.359 373.587H255.243Z" fill="#006C35"/>
<path d="M167.539 373.587C168.016 375.495 168.255 377.879 168.255 380.741C168.255 383.483 168.016 385.868 167.539 387.895C168.016 389.802 168.255 392.187 168.255 395.048C168.255 397.791 168.016 400.175 167.539 402.202H196.154C196.631 404.11 196.87 406.495 196.87 409.356C196.87 412.098 196.631 414.483 196.154 416.51H153.231C152.755 414.483 152.516 412.098 152.516 409.356C152.516 406.495 152.755 404.11 153.231 402.202C152.755 400.175 152.516 397.791 152.516 395.048C152.516 392.187 152.755 389.802 153.231 387.895C152.755 385.868 152.516 383.483 152.516 380.741C152.516 377.879 152.755 375.495 153.231 373.587C152.755 371.56 152.516 369.175 152.516 366.433C152.516 363.572 152.755 361.187 153.231 359.279C152.755 357.252 152.516 354.868 152.516 352.125C152.516 349.264 152.755 346.879 153.231 344.972C152.755 342.945 152.516 340.56 152.516 337.818C152.516 334.956 152.755 332.572 153.231 330.664C152.755 328.637 152.516 326.252 152.516 323.51C152.516 320.649 152.755 318.264 153.231 316.356H196.154C196.631 318.264 196.87 320.649 196.87 323.51C196.87 326.252 196.631 328.637 196.154 330.664H167.539C168.016 332.572 168.255 334.956 168.255 337.818C168.255 340.56 168.016 342.945 167.539 344.972C168.016 346.879 168.255 349.264 168.255 352.125C168.255 354.868 168.016 357.252 167.539 359.279H196.154C196.631 361.187 196.87 363.572 196.87 366.433C196.87 369.175 196.631 371.56 196.154 373.587H167.539Z" fill="#006C35"/>
<path d="M131.7 402.202C132.177 404.11 132.416 406.495 132.416 409.356C132.416 412.098 132.177 414.483 131.7 416.51H117.393C116.916 414.483 116.677 412.098 116.677 409.356C116.677 406.495 116.916 404.11 117.393 402.202H112.027C111.55 400.175 111.312 397.791 111.312 395.048C111.312 392.187 111.55 389.802 112.027 387.895H106.662C106.185 385.868 105.946 383.483 105.946 380.741C105.946 377.879 106.185 375.495 106.662 373.587H88.7772C89.2542 375.495 89.4926 377.879 89.4926 380.741C89.4926 383.483 89.2542 385.868 88.7772 387.895C89.2542 389.802 89.4926 392.187 89.4926 395.048C89.4926 397.791 89.2542 400.175 88.7772 402.202C89.2542 404.11 89.4926 406.495 89.4926 409.356C89.4926 412.098 89.2542 414.483 88.7772 416.51H74.4696C73.9927 414.483 73.7542 412.098 73.7542 409.356C73.7542 406.495 73.9927 404.11 74.4696 402.202C73.9927 400.175 73.7542 397.791 73.7542 395.048C73.7542 392.187 73.9927 389.802 74.4696 387.895C73.9927 385.868 73.7542 383.483 73.7542 380.741C73.7542 377.879 73.9927 375.495 74.4696 373.587C73.9927 371.56 73.7542 369.175 73.7542 366.433C73.7542 363.572 73.9927 361.187 74.4696 359.279C73.9927 357.252 73.7542 354.868 73.7542 352.125C73.7542 349.264 73.9927 346.879 74.4696 344.972C73.9927 342.945 73.7542 340.56 73.7542 337.818C73.7542 334.956 73.9927 332.572 74.4696 330.664C73.9927 328.637 73.7542 326.252 73.7542 323.51C73.7542 320.649 73.9927 318.264 74.4696 316.356H124.546C125.023 318.264 125.262 320.649 125.262 323.51C125.262 326.252 125.023 328.637 124.546 330.664H131.7C132.177 332.572 132.416 334.956 132.416 337.818C132.416 340.56 132.177 342.945 131.7 344.972H128.123C128.6 346.879 128.839 349.264 128.839 352.125C128.839 354.868 128.6 357.252 128.123 359.279H117.393C117.869 361.187 118.108 363.572 118.108 366.433C118.108 369.175 117.869 371.56 117.393 373.587H120.969C121.446 375.495 121.685 377.879 121.685 380.741C121.685 383.483 121.446 385.868 120.969 387.895H126.335C126.812 389.802 127.05 392.187 127.05 395.048C127.05 397.791 126.812 400.175 126.335 402.202H131.7ZM113.816 359.279C113.339 357.252 113.1 354.868 113.1 352.125C113.1 349.264 113.339 346.879 113.816 344.972C113.339 342.945 113.1 340.56 113.1 337.818C113.1 334.956 113.339 332.572 113.816 330.664H88.7772C89.2542 332.572 89.4926 334.956 89.4926 337.818C89.4926 340.56 89.2542 342.945 88.7772 344.972C89.2542 346.879 89.4926 349.264 89.4926 352.125C89.4926 354.868 89.2542 357.252 88.7772 359.279H113.816Z" fill="#006C35"/>
<path d="M60.0921 359.279C60.569 361.187 60.8075 363.572 60.8075 366.433C60.8075 369.175 60.569 371.56 60.0921 373.587C60.569 375.495 60.8075 377.879 60.8075 380.741C60.8075 383.483 60.569 385.868 60.0921 387.895H52.9383C53.4152 389.802 53.6537 392.187 53.6537 395.048C53.6537 397.791 53.4152 400.175 52.9383 402.202H45.7845C46.2614 404.11 46.4998 406.495 46.4998 409.356C46.4998 412.098 46.2614 414.483 45.7845 416.51H2.86152C2.3846 414.483 2.14614 412.098 2.14614 409.356C2.14614 406.495 2.3846 404.11 2.86152 402.202C2.3846 400.175 2.14614 397.791 2.14614 395.048C2.14614 392.187 2.3846 389.802 2.86152 387.895C2.3846 385.868 2.14614 383.483 2.14614 380.741C2.14614 377.879 2.3846 375.495 2.86152 373.587C2.3846 371.56 2.14614 369.175 2.14614 366.433C2.14614 363.572 2.3846 361.187 2.86152 359.279C2.3846 357.252 2.14614 354.868 2.14614 352.125C2.14614 349.264 2.3846 346.879 2.86152 344.972C2.3846 342.945 2.14614 340.56 2.14614 337.818C2.14614 334.956 2.3846 332.572 2.86152 330.664C2.3846 328.637 2.14614 326.252 2.14614 323.51C2.14614 320.649 2.3846 318.264 2.86152 316.356H45.7845C46.2614 318.264 46.4998 320.649 46.4998 323.51C46.4998 326.252 46.2614 328.637 45.7845 330.664H52.9383C53.4152 332.572 53.6537 334.956 53.6537 337.818C53.6537 340.56 53.4152 342.945 52.9383 344.972H60.0921C60.569 346.879 60.8075 349.264 60.8075 352.125C60.8075 354.868 60.569 357.252 60.0921 359.279ZM45.7845 387.895C45.3075 385.868 45.0691 383.483 45.0691 380.741C45.0691 377.879 45.3075 375.495 45.7845 373.587C45.3075 371.56 45.0691 369.175 45.0691 366.433C45.0691 363.572 45.3075 361.187 45.7845 359.279C45.3075 357.252 45.0691 354.868 45.0691 352.125C45.0691 349.264 45.3075 346.879 45.7845 344.972H38.6306C38.1537 342.945 37.9153 340.56 37.9153 337.818C37.9153 334.956 38.1537 332.572 38.6306 330.664H17.1692C17.6461 332.572 17.8846 334.956 17.8846 337.818C17.8846 340.56 17.6461 342.945 17.1692 344.972C17.6461 346.879 17.8846 349.264 17.8846 352.125C17.8846 354.868 17.6461 357.252 17.1692 359.279C17.6461 361.187 17.8846 363.572 17.8846 366.433C17.8846 369.175 17.6461 371.56 17.1692 373.587C17.6461 375.495 17.8846 377.879 17.8846 380.741C17.8846 383.483 17.6461 385.868 17.1692 387.895C17.6461 389.802 17.8846 392.187 17.8846 395.048C17.8846 397.791 17.6461 400.175 17.1692 402.202H38.6306C38.1537 400.175 37.9153 397.791 37.9153 395.048C37.9153 392.187 38.1537 389.802 38.6306 387.895H45.7845Z" fill="#006C35"/>
</svg>
