<?xml version="1.0" encoding="utf-8"?>
<!-- Generator: Adobe Illustrator 27.1.1, SVG Export Plug-In . SVG Version: 6.00 Build 0)  -->
<svg version="1.1" id="Layer_1" xmlns="http://www.w3.org/2000/svg" xmlns:xlink="http://www.w3.org/1999/xlink" x="0px" y="0px"
	 viewBox="0 0 422 417" style="enable-background:new 0 0 422 417;" xml:space="preserve">
<style type="text/css">
	.st0{fill-rule:evenodd;clip-rule:evenodd;fill:#FFFFFF;}
	.st1{fill:#FFFFFF;}
</style>
<g>
	<path class="st0" d="M218,271.8c-0.7-4.9,4.7-10.1,9.4-10.4c4.2-0.2,8.2,3.1,9.9,7.8c6.6,19.1,17.2,49.6,17.2,49.6l102.8-0.5
		c29.2-41.6,38.6-82.1,32.7-129.4c-0.5-3.8,1.6-9.2,7.1-9.6c7.1-0.7,8.7,8.5,9.2,12c14.8,109.9-67.8,209.6-170.8,220.5
		C235.4,411.6,223.4,313,218,271.8z"/>
	<path class="st0" d="M381.8,192.5c-0.7-3.1-1.6-10.4-8.7-9.9c-7.3,0.5-7.3,8.2-6.8,12c4,48.2-4.2,73.9-29.6,112h20.2
		C378.7,268.5,386.7,232,381.8,192.5z"/>
	<path class="st0" d="M356.3,196.8c-0.7-3.1-1.6-10.4-8.7-9.9c-7.3,0.5-7.3,8.2-6.8,12c1.6,49.6-6.6,71.5-37.4,107.8h22.1
		C350.7,269.9,361.5,236.3,356.3,196.8z"/>
	<path class="st0" d="M330.2,200.5c-0.7-3.1-1.6-10.4-8.7-9.9c-7.3,0.5-7.3,8.2-6.8,12c4,48.2-19.8,84.5-53.9,104h30.1
		C321.8,274.2,335.4,240,330.2,200.5z"/>
	<path class="st0" d="M193.5,272c0.7-4.9-4.7-10.1-9.4-10.4c-4.2-0.2-8.2,3.1-9.9,7.8c-6.6,19.1-17.2,49.6-17.2,49.6l-102.8-0.5
		C25.1,277,15.7,236.5,21.5,189.2c0.5-3.8-1.6-9.2-7.1-9.6c-7.1-0.7-8.7,8.5-9.2,12C-9.5,301.5,73.1,401.2,176.1,412
		C176.1,412,188.1,313.5,193.5,272z"/>
	<path class="st0" d="M29.8,193c0.7-3.1,1.6-10.4,8.7-9.9c7.3,0.5,7.3,8.2,6.8,12c-4,48.2,4.2,73.9,29.6,112H54.7
		C32.8,269,24.8,232.3,29.8,193z"/>
	<path class="st0" d="M55.2,197.2c0.7-3.1,1.6-10.4,8.7-9.9c7.3,0.5,7.3,8.2,6.8,12c-1.6,49.6,6.6,71.5,37.4,107.8H86
		C60.8,270.4,50,236.5,55.2,197.2z"/>
	<path class="st0" d="M81.1,201c0.7-3.1,1.6-10.4,8.7-9.9c7.3,0.5,7.3,8.2,6.8,12c-4,48.2,19.8,84.5,53.9,104h-29.9
		C89.5,274.6,76.1,240.5,81.1,201z"/>
	<path class="st1" d="M53.8,74.2c2.1-6.6,7.3-10.6,12-14.8c25.4-23.3,54.6-39.3,87.8-47.8c25.4-6.6,51.3-8,77.4-4.7
		c35.3,4.5,67.5,17.2,96,38.6c8.5,6.4,16.5,13.9,24.2,21.2c2.1,2.1,3.3,5.2,4.9,7.8c0,1.9,0,4,0,5.9c-0.9,2.1-1.9,4.5-3.1,6.4
		c-5.6,7.5-15.8,8.2-23.1,1.6c-5.6-4.9-10.8-10.4-16.7-14.8c-25.4-20-54.1-32.5-86.1-36c-56.2-6.8-104.7,9.6-145.4,48.7
		c-2.6,2.4-5.6,4.7-8.9,5.6c-7.1,2.4-14.8-2.1-17.6-9.2c-0.2-0.9-0.7-1.9-1.2-2.6C53.8,78.2,53.8,76.1,53.8,74.2z"/>
	<path class="st1" d="M210.7,62.2c37.6,0.7,74.6,16.7,104.2,48.7c6.4,6.6,6.1,16-0.2,21.9c-6.1,5.9-15.5,5.6-21.6-0.9
		c-12.7-13.6-27.5-24-44.7-30.8c-43.8-17.6-95.3-6.6-128,27.3c-1.4,1.4-2.8,3.1-4.5,4.5c-5.9,5.4-14.6,5.4-20.5,0.2
		c-5.9-5.4-6.8-14.1-1.9-20.2c6.8-8.7,15.3-15.8,24.2-22.4C143.7,71.8,173.5,62.2,210.7,62.2z"/>
	<path class="st1" d="M267.4,181.7c-5.6-0.2-9.4-2.6-12.9-6.4c-4.5-4.9-8.9-9.9-13.9-13.9c-20-15.5-51.1-15.5-71.1,0
		c-5.6,4.5-10.4,10.1-15.3,15.3c-6.4,6.6-16.5,6.6-22.6-0.2c-4.9-5.6-5.2-13.4-0.5-19.8c6.4-8.5,13.9-15.8,22.6-21.9
		c40.7-27.5,96-17.9,124.9,21.6c3.8,5.2,4.7,10.8,1.9,16.7C277.8,178.9,273.1,181.5,267.4,181.7z"/>
	<path class="st1" d="M204.8,245c-19.1,0-34.1-15.5-34.1-34.6c0.2-18.8,15.5-34.1,34.4-33.9c19.1,0,34.1,15.5,34.1,34.6
		C239.2,229.9,223.9,245,204.8,245z"/>
</g>
</svg>
